<svg xmlns="http://www.w3.org/2000/svg" version="1.1" xmlns:xlink="http://www.w3.org/1999/xlink" width="200" height="200"><svg xmlns="http://www.w3.org/2000/svg" version="1.1" xmlns:xlink="http://www.w3.org/1999/xlink" width="200" height="200"><svg xmlns="http://www.w3.org/2000/svg" version="1.1" xmlns:xlink="http://www.w3.org/1999/xlink" viewBox="0 0 200 200"><rect width="200" height="200" fill="url('#gradient')"></rect><defs><linearGradient id="gradient" gradientTransform="rotate(45 0.5 0.5)"><stop offset="0%" stop-color="#0ce892"></stop><stop offset="100%" stop-color="#f2ff01"></stop></linearGradient></defs><g><g fill="#000000" transform="matrix(2.2016244624940278,0,0,2.2016244624940278,7.115962712661073,115.65780732828752)" stroke="#1e3949" stroke-width="0.2"><path d="M4.73-14.22L4.73 0L1.31 0L1.31-14.22L4.73-14.22ZM7.11-14.22L11.61-14.22L14.79-4.33L17.95-14.22L22.46-14.22L22.46 0L19.02 0L19.02-3.32L19.36-10.12L15.92 0L13.65 0L10.21-10.13L10.54-3.32L10.54 0L7.11 0L7.11-14.22ZM30.92-7.40L30.92-4.85L25.05-4.85L25.05-7.40L30.92-7.40ZM43.35-2.54L43.35 0L33.43 0L33.43-2.15L38.00-6.95Q39.69-8.88 39.69-10.01L39.69-10.01Q39.69-10.93 39.29-11.41Q38.89-11.88 38.13-11.88L38.13-11.88Q37.37-11.88 36.90-11.25Q36.44-10.61 36.44-9.65L36.44-9.65L33.13-9.65Q33.13-10.96 33.79-12.07Q34.44-13.17 35.61-13.80Q36.77-14.42 38.20-14.42L38.20-14.42Q40.51-14.42 41.75-13.36Q43.00-12.29 43.00-10.30L43.00-10.30Q43.00-9.46 42.69-8.67Q42.37-7.87 41.71-7.00Q41.05-6.12 39.59-4.66L39.59-4.66L37.75-2.54L43.35-2.54ZM52.46-14.42L52.96-14.42L52.96-11.84L52.81-11.84Q50.97-11.84 49.78-10.95Q48.59-10.07 48.32-8.50L48.32-8.50Q49.43-9.59 51.13-9.59L51.13-9.59Q52.98-9.59 54.07-8.24Q55.17-6.89 55.17-4.71L55.17-4.71Q55.17-3.35 54.53-2.22Q53.89-1.08 52.74-0.44Q51.59 0.20 50.20 0.20L50.20 0.20Q48.68 0.20 47.49-0.49Q46.30-1.18 45.63-2.46Q44.97-3.74 44.95-5.41L44.95-5.41L44.95-6.73Q44.95-8.93 45.89-10.68Q46.84-12.43 48.58-13.43Q50.33-14.42 52.46-14.42L52.46-14.42ZM49.99-7.07L49.99-7.07Q49.34-7.07 48.90-6.77Q48.46-6.46 48.24-6.03L48.24-6.03L48.24-5.04Q48.24-2.34 50.11-2.34L50.11-2.34Q50.86-2.34 51.36-3.02Q51.87-3.69 51.87-4.71L51.87-4.71Q51.87-5.75 51.35-6.41Q50.84-7.07 49.99-7.07ZM63.08-7.40L63.08-4.85L57.21-4.85L57.21-7.40L63.08-7.40ZM74.70 0L73.87-2.66L69.17-2.66L68.35 0L64.69 0L69.90-14.22L73.13-14.22L78.38 0L74.70 0ZM71.51-10.23L69.99-5.30L73.05-5.30L71.51-10.23ZM83.07-14.22L83.07 0L79.65 0L79.65-14.22L83.07-14.22Z"></path></g></g></svg></svg><style>@media (prefers-color-scheme: light) { :root { filter: none; } }
@media (prefers-color-scheme: dark) { :root { filter: none; } }
</style></svg>